<svg width="23" height="23" viewBox="0 0 23 23" fill="none" xmlns="http://www.w3.org/2000/svg">
<path d="M19.1148 16.561H8.99238C7.59487 16.561 6.46178 15.428 6.46178 14.0305V3.90848C6.46178 2.51102 7.59487 1.37796 8.99238 1.37796H19.1149C20.5124 1.37796 21.6454 2.511 21.6454 3.90848V14.0305C21.6454 15.428 20.5123 16.561 19.1148 16.561ZM20.3801 3.90848C20.3801 3.20975 19.8136 2.64323 19.1148 2.64323H8.99238C8.29362 2.64323 7.72706 3.20975 7.72706 3.90848V14.0305C7.72706 14.7292 8.2936 15.2958 8.99238 15.2958H19.1149C19.8136 15.2958 20.3802 14.7293 20.3802 14.0305V3.90848H20.3801ZM2.66584 8.96948V19.0915C2.66584 19.7902 3.23238 20.3568 3.93114 20.3568H14.0536C14.7523 20.3568 15.3189 19.7903 15.3189 19.0915V17.8263H16.5842V19.0915C16.5842 20.489 15.4511 21.622 14.0536 21.622H3.93114C2.53363 21.622 1.40052 20.489 1.40052 19.0915V8.96948C1.40052 7.57203 2.53361 6.43897 3.93114 6.43897H5.19646V7.70421H3.93114C3.23238 7.70421 2.66584 8.27076 2.66584 8.96948Z" fill="#333138"/>
</svg>
