<svg width="74" height="131" viewBox="0 0 74 131" fill="none" xmlns="http://www.w3.org/2000/svg">
<path d="M37 50.3143C35.8166 50.3151 34.6614 50.6727 33.6869 51.3398C32.7125 52.0069 31.9648 52.9522 31.5427 54.0505C31.1206 55.1489 31.0439 56.3487 31.3229 57.4913C31.6018 58.6339 32.2232 59.6654 33.1049 60.4496V65.8C33.1049 66.8264 33.5153 67.8107 34.2458 68.5364C34.9762 69.2621 35.967 69.6699 37 69.6699C38.033 69.6699 39.0238 69.2621 39.7542 68.5364C40.4847 67.8107 40.8951 66.8264 40.8951 65.8V60.4496C41.5081 59.9054 41.9983 59.2385 42.3334 58.4926C42.6685 57.7468 42.8409 56.939 42.8394 56.1222C42.8411 55.3596 42.6913 54.6041 42.3985 53.8991C42.1057 53.1941 41.6757 52.5535 41.1332 52.0139C40.5907 51.4743 39.9464 51.0465 39.2371 50.7548C38.5279 50.4632 37.7676 50.3135 37 50.3143ZM64.2719 32.8968H60.3768V23.219C60.3768 17.061 57.9146 11.1551 53.5318 6.8007C49.149 2.44628 43.2046 0 37.0064 0C30.8082 0 24.8638 2.44628 20.481 6.8007C16.0982 11.1551 13.636 17.061 13.636 23.219V32.8905H9.73449C4.35558 32.8905 0 37.2242 0 42.5619V79.3286C0 84.6726 4.36197 89 9.73449 89H64.2719C69.6444 89 74 84.6663 74 79.3286V42.5683C74 37.2242 69.6444 32.8968 64.2719 32.8968ZM37 3.86984C42.1652 3.86984 47.1188 5.90841 50.7712 9.53709C54.4235 13.1658 56.4754 18.0873 56.4754 23.219V32.8905H17.5246V23.219C17.5263 18.0878 19.5787 13.1673 23.2307 9.53895C26.8827 5.91064 31.8353 3.87153 37 3.86984ZM70.1177 79.3349C70.1177 82.5439 67.4954 85.1365 64.2719 85.1365H9.73449C8.18519 85.1365 6.69925 84.5255 5.60314 83.4377C4.50702 82.3498 3.89037 80.8742 3.88868 79.3349V42.5683C3.88868 39.3656 6.50458 36.7603 9.73449 36.7603H64.2719C67.4954 36.7603 70.1177 39.3593 70.1177 42.5683V79.3349Z" fill="#778DA9"/>
<path d="M9.55682 111.864L9.75568 106.395L5.1321 109.328L3.93892 107.24L8.81108 104.705L3.93892 102.169L5.1321 100.081L9.75568 103.014L9.55682 97.5455H11.9432L11.7443 103.014L16.3679 100.081L17.5611 102.169L12.6889 104.705L17.5611 107.24L16.3679 109.328L11.7443 106.395L11.9432 111.864H9.55682ZM27.0568 111.864L27.2557 106.395L22.6321 109.328L21.4389 107.24L26.3111 104.705L21.4389 102.169L22.6321 100.081L27.2557 103.014L27.0568 97.5455H29.4432L29.2443 103.014L33.8679 100.081L35.0611 102.169L30.1889 104.705L35.0611 107.24L33.8679 109.328L29.2443 106.395L29.4432 111.864H27.0568ZM44.5568 111.864L44.7557 106.395L40.1321 109.328L38.9389 107.24L43.8111 104.705L38.9389 102.169L40.1321 100.081L44.7557 103.014L44.5568 97.5455H46.9432L46.7443 103.014L51.3679 100.081L52.5611 102.169L47.6889 104.705L52.5611 107.24L51.3679 109.328L46.7443 106.395L46.9432 111.864H44.5568ZM62.0568 111.864L62.2557 106.395L57.6321 109.328L56.4389 107.24L61.3111 104.705L56.4389 102.169L57.6321 100.081L62.2557 103.014L62.0568 97.5455H64.4432L64.2443 103.014L68.8679 100.081L70.0611 102.169L65.1889 104.705L70.0611 107.24L68.8679 109.328L64.2443 106.395L64.4432 111.864H62.0568Z" fill="#778DA9"/>
</svg>
